# xmcd
#
# Track frame offsets:
#	150
#	15540
#	30857
#	56342
#	72380
#	88037
#	107225
#	126832
#	146955
#
# Disc length: 2232 seconds
#
# Revision: 1
# Processed by: cddbd v1.5.2PL0 Copyright (c) Steve Scherf et al.
# Submitted via: audiograbber 1.83.01
#
DISCID=7708b609
DTITLE=Wilf Montan - Back To Alberta
DYEAR=1900
DGENRE=
TTITLE0=Walz Of My Dreams
TTITLE1=The World Keeps Turning
TTITLE2=Rock Mountaineers
TTITLE3=Calgary Stamnpede
TTITLE4=Rocky Rocky Mountains
TTITLE5=Where The Bow River Flows
TTITLE6=Plains Of Alberta
TTITLE7=My Old Canadian Moon
TTITLE8=The Land Down Under
EXTD=
EXTT0=
EXTT1=
EXTT2=
EXTT3=
EXTT4=
EXTT5=
EXTT6=
EXTT7=
EXTT8=
PLAYORDER=
